<svg width="22" height="21" viewBox="0 0 22 21" fill="none" xmlns="http://www.w3.org/2000/svg">
<path d="M20.3596 20.3481L19.1434 5.4868C19.1194 5.19362 18.8715 4.96774 18.5736 4.96774H15.3088V4.25306C15.3088 1.90791 13.4021 0 11.0272 0H10.9517C8.57684 0 6.61936 1.90791 6.61936 4.25306V4.96774H3.40528C3.1074 4.96774 2.85945 5.19362 2.83544 5.4868L1.61588 20.39C1.603 20.5472 1.65727 20.7024 1.7655 20.8182C1.87374 20.9341 2.02619 21 2.18572 21H19.7932C19.7936 21 19.7942 21 19.7947 21C20.1105 21 20.3664 20.7473 20.3664 20.4355C20.3664 20.4058 20.3641 20.3765 20.3596 20.3481ZM7.7627 4.25306C7.7627 2.53046 9.20728 1.12903 10.9517 1.12903H11.0272C12.7716 1.12903 14.1654 2.53046 14.1654 4.25306V4.96774H7.7627V4.25306Z" fill="#4A4A4A"/>
</svg>
