<svg width="53" height="56" viewBox="0 0 53 56" fill="none" xmlns="http://www.w3.org/2000/svg">
<path d="M0.883301 17.4381C1.05556 16.133 1.18681 14.8204 1.40577 13.5247C2.64694 6.18599 7.48984 1.19288 14.4144 0.937001C22.7518 0.62967 31.1144 0.613424 39.4505 0.935647C46.9871 1.22673 52.4452 7.21359 52.6806 15.3017C52.9311 23.89 52.9311 32.4993 52.6806 41.0877C52.4452 49.1758 46.989 55.1619 39.4511 55.4537C31.115 55.7766 22.7505 55.7847 14.415 55.449C6.87714 55.145 1.66637 49.1446 1.1622 41.0443C1.11866 40.3437 0.978581 39.6492 0.883301 38.9519C0.883301 31.7804 0.883301 24.6089 0.883301 17.4381ZM26.8829 50.6603C30.6979 50.6603 34.5167 50.7828 38.3267 50.6319C44.3003 50.3942 47.9746 46.5695 48.114 40.167C48.2869 32.1893 48.2869 24.2007 48.114 16.2223C47.9746 9.82116 44.2978 5.9071 38.3267 5.77103C30.7477 5.59909 23.1606 5.60044 15.5817 5.77103C9.65605 5.90439 5.97103 9.73925 5.81012 16.07C5.60568 24.1486 5.60568 32.2414 5.81012 40.32C5.97103 46.6501 9.65605 50.3963 15.5824 50.6319C19.3444 50.7821 23.1158 50.6603 26.8829 50.6603Z" fill="white"/>
<path d="M26.8761 13.988C19.5603 13.988 13.6289 20.3506 13.6289 28.199C13.6289 36.0482 19.5603 42.4107 26.8761 42.4107C34.1925 42.4107 40.1232 36.0482 40.1232 28.199C40.1232 20.3506 34.1925 13.988 26.8761 13.988ZM26.8761 37.5178C22.0786 37.5178 18.1898 33.3458 18.1898 28.199C18.1898 23.0523 22.0786 18.8803 26.8761 18.8803C31.6735 18.8803 35.5624 23.0523 35.5624 28.199C35.5624 33.3458 31.6735 37.5178 26.8761 37.5178Z" fill="white"/>
<path d="M44.0481 13.3403C44.0481 15.2073 42.6372 16.7209 40.8969 16.7209C39.1567 16.7209 37.7451 15.2073 37.7451 13.3403C37.7451 11.4726 39.1567 9.95898 40.8969 9.95898C42.6372 9.95898 44.0481 11.4726 44.0481 13.3403Z" fill="white"/>
</svg>
