<svg width="217" height="41" viewBox="0 0 217 41" fill="none" xmlns="http://www.w3.org/2000/svg">
<path d="M19.5489 2.92705C19.8483 2.00574 21.1517 2.00574 21.4511 2.92705L24.878 13.4742C25.0119 13.8862 25.3959 14.1652 25.8291 14.1652H36.919C37.8877 14.1652 38.2905 15.4048 37.5068 15.9742L28.5348 22.4926C28.1844 22.7473 28.0377 23.1987 28.1716 23.6107L31.5985 34.1578C31.8979 35.0791 30.8434 35.8452 30.0597 35.2758L21.0878 28.7574C20.7373 28.5027 20.2627 28.5027 19.9122 28.7574L10.9403 35.2758C10.1566 35.8452 9.10211 35.0791 9.40146 34.1578L12.8284 23.6107C12.9623 23.1987 12.8156 22.7473 12.4652 22.4926L3.49324 15.9742C2.70952 15.4048 3.1123 14.1652 4.08103 14.1652H15.1709C15.6041 14.1652 15.9881 13.8862 16.122 13.4742L19.5489 2.92705Z" fill="#FFAF67"/>
<path d="M62.5489 2.92705C62.8483 2.00574 64.1517 2.00574 64.4511 2.92705L67.878 13.4742C68.0119 13.8862 68.3959 14.1652 68.8291 14.1652H79.919C80.8877 14.1652 81.2905 15.4048 80.5068 15.9742L71.5348 22.4926C71.1844 22.7473 71.0377 23.1987 71.1716 23.6107L74.5985 34.1578C74.8979 35.0791 73.8434 35.8452 73.0597 35.2758L64.0878 28.7574C63.7373 28.5027 63.2627 28.5027 62.9122 28.7574L53.9403 35.2758C53.1566 35.8452 52.1021 35.0791 52.4015 34.1578L55.8284 23.6107C55.9623 23.1987 55.8156 22.7473 55.4652 22.4926L46.4932 15.9742C45.7095 15.4048 46.1123 14.1652 47.081 14.1652H58.1709C58.6041 14.1652 58.9881 13.8862 59.122 13.4742L62.5489 2.92705Z" fill="#FFAF67"/>
<path d="M107.549 2.92705C107.848 2.00574 109.152 2.00574 109.451 2.92705L112.878 13.4742C113.012 13.8862 113.396 14.1652 113.829 14.1652H124.919C125.888 14.1652 126.29 15.4048 125.507 15.9742L116.535 22.4926C116.184 22.7473 116.038 23.1987 116.172 23.6107L119.599 34.1578C119.898 35.0791 118.843 35.8452 118.06 35.2758L109.088 28.7574C108.737 28.5027 108.263 28.5027 107.912 28.7574L98.9403 35.2758C98.1566 35.8452 97.1021 35.0791 97.4015 34.1578L100.828 23.6107C100.962 23.1987 100.816 22.7473 100.465 22.4926L91.4932 15.9742C90.7095 15.4048 91.1123 14.1652 92.081 14.1652H103.171C103.604 14.1652 103.988 13.8862 104.122 13.4742L107.549 2.92705Z" fill="#FFAF67"/>
<path d="M150.549 2.92705C150.848 2.00574 152.152 2.00574 152.451 2.92705L155.878 13.4742C156.012 13.8862 156.396 14.1652 156.829 14.1652H167.919C168.888 14.1652 169.29 15.4048 168.507 15.9742L159.535 22.4926C159.184 22.7473 159.038 23.1987 159.172 23.6107L162.599 34.1578C162.898 35.0791 161.843 35.8452 161.06 35.2758L152.088 28.7574C151.737 28.5027 151.263 28.5027 150.912 28.7574L141.94 35.2758C141.157 35.8452 140.102 35.0791 140.401 34.1578L143.828 23.6107C143.962 23.1987 143.816 22.7473 143.465 22.4926L134.493 15.9742C133.71 15.4048 134.112 14.1652 135.081 14.1652H146.171C146.604 14.1652 146.988 13.8862 147.122 13.4742L150.549 2.92705Z" fill="#E0E0E0"/>
<path d="M195.549 2.92705C195.848 2.00574 197.152 2.00574 197.451 2.92705L200.878 13.4742C201.012 13.8862 201.396 14.1652 201.829 14.1652H212.919C213.888 14.1652 214.29 15.4048 213.507 15.9742L204.535 22.4926C204.184 22.7473 204.038 23.1987 204.172 23.6107L207.599 34.1578C207.898 35.0791 206.843 35.8452 206.06 35.2758L197.088 28.7574C196.737 28.5027 196.263 28.5027 195.912 28.7574L186.94 35.2758C186.157 35.8452 185.102 35.0791 185.401 34.1578L188.828 23.6107C188.962 23.1987 188.816 22.7473 188.465 22.4926L179.493 15.9742C178.71 15.4048 179.112 14.1652 180.081 14.1652H191.171C191.604 14.1652 191.988 13.8862 192.122 13.4742L195.549 2.92705Z" fill="#E0E0E0"/>
</svg>
