<svg width="54" height="51" viewBox="0 0 54 51" fill="none" xmlns="http://www.w3.org/2000/svg">
<path d="M16.9824 51C37.361 51 48.5051 31.3802 48.5051 14.3679C48.5051 13.8103 48.4953 13.2562 48.4732 12.7043C50.6362 10.8864 52.5164 8.6189 54 6.03778C52.0145 7.06269 49.8785 7.75331 47.6372 8.06412C49.925 6.47093 51.681 3.94885 52.5097 0.942403C50.3681 2.41753 47.9983 3.48938 45.4748 4.06762C43.4527 1.56546 40.5736 0 37.3879 0C31.2687 0 26.3069 5.76608 26.3069 12.8736C26.3069 13.8843 26.4042 14.8665 26.5939 15.8096C17.3869 15.2712 9.22166 10.1474 3.75795 2.35779C2.80561 4.26037 2.25783 6.47093 2.25783 8.82872C2.25783 13.2953 4.21392 17.2392 7.18784 19.5458C5.37068 19.4811 3.66308 18.9 2.17031 17.9348C2.16786 17.9889 2.16786 18.0429 2.16786 18.0991C2.16786 24.3353 5.98701 29.541 11.056 30.7209C10.1257 31.0154 9.14638 31.174 8.13528 31.174C7.42164 31.174 6.72758 31.0915 6.0525 30.9421C7.46326 36.0567 11.5529 39.7794 16.4028 39.8846C12.6099 43.3377 7.83355 45.3954 2.6428 45.3954C1.74922 45.3954 0.867266 45.3363 0 45.2169C4.90308 48.8684 10.7248 51 16.9824 51Z" fill="white"/>
</svg>
