<svg width="43" height="42" viewBox="0 0 43 42" fill="none" xmlns="http://www.w3.org/2000/svg">
<g clip-path="url(#clip0_1_26)">
<path d="M39.8038 28.2985H39.3674V25.7438C39.3674 23.3971 37.4102 21.4861 35.0061 21.4861C32.602 21.4861 30.6448 23.3971 30.6448 25.7438V28.2985H30.2085C28.525 28.2985 27.1556 29.6354 27.1556 31.2792V37.24C27.1556 38.8837 28.525 40.2206 30.2085 40.2206H39.8038C41.4873 40.2206 42.8567 38.8837 42.8567 37.24V31.2792C42.8567 29.6354 41.4873 28.2985 39.8038 28.2985ZM33.2617 25.7438C33.2617 24.8054 34.0449 24.0408 35.0061 24.0408C35.9673 24.0408 36.7506 24.8054 36.7506 25.7438V28.2985H33.2617V25.7438Z" fill="#4A4A4A"/>
<path d="M24.5387 31.2792C24.5387 28.9799 25.9816 27.0059 28.028 26.1698V25.7438C28.028 24.7085 28.2842 23.7377 28.71 22.857C27.391 21.9935 25.8069 21.4861 24.1027 21.4861H9.27365C4.7047 21.4861 0.987061 25.1154 0.987061 29.5759V35.5369C0.987061 36.242 1.57323 36.8143 2.29549 36.8143H24.5387V31.2792Z" fill="#4A4A4A"/>
<path d="M25.4111 9.56423C25.4111 14.2673 21.5056 18.0797 16.6882 18.0797C11.8707 18.0797 7.96521 14.2673 7.96521 9.56423C7.96521 4.86118 11.8707 1.04846 16.6882 1.04846C21.5056 1.04846 25.4111 4.86118 25.4111 9.56423Z" fill="#4A4A4A"/>
</g>
<defs>
<clipPath id="clip0_1_26">
<rect width="41.8696" height="40.8752" fill="white" transform="translate(0.987061 0.170288)"/>
</clipPath>
</defs>
</svg>
