<svg width="49" height="54" viewBox="0 0 49 54" fill="none" xmlns="http://www.w3.org/2000/svg">
<path d="M33.9093 5.01636V16.377C33.371 17.2139 32.9303 17.6801 32.4436 17.6801C32.1202 17.6801 31.9607 17.5289 31.9011 17.1147V16.0819V5.01636H29.3574V16.8196C29.3574 17.8437 29.4746 18.541 29.6396 18.9875C29.9115 19.7219 30.4544 20.1284 31.2364 20.1284C32.1274 20.1284 32.945 19.5131 33.9093 18.295V19.918H36.4531V5.01636H33.9093Z" fill="white"/>
<path d="M23.8682 4.90771C22.6559 4.90771 21.7335 5.32496 21.0567 6.34417C20.5355 7.09693 20.256 8.30573 20.256 9.89814L20.2534 15.1966C20.2534 16.7802 20.5022 17.8744 21.0234 18.6197C21.7 19.6359 22.7971 20.1741 23.8682 20.1741C24.9392 20.1741 26.0556 19.6359 26.7332 18.6197C27.2462 17.8744 27.4831 16.7802 27.4831 15.1966V9.88516C27.4831 8.29275 27.1928 7.09693 26.6798 6.34417C26.0018 5.32496 24.9392 4.90771 23.8682 4.90771ZM23.868 17.6992C23.0782 17.6992 22.6633 16.9671 22.7971 15.4917V9.59008C22.6633 8.11467 23.0784 7.42314 23.8682 7.42314C24.6578 7.42314 25.0747 8.11467 24.9408 9.59008L24.9392 15.4917C25.0731 16.9671 24.6578 17.6992 23.868 17.6992Z" fill="white"/>
<path d="M17.9776 0L16.1081 7.77172L14.229 0H11.4175C11.9898 1.85444 14.7645 11.8033 14.7645 11.8033V19.918H17.4421V11.8033L20.7891 0H17.9776Z" fill="white"/>
<path d="M38.595 37.3403C38.595 35.9766 38.2751 35.5669 37.4715 35.5669C36.662 35.5669 36.3191 35.943 36.3191 37.3219V38.9539L38.595 38.9509V37.3403Z" fill="white"/>
<path d="M28.6104 35.5669C28.2116 35.5669 27.7541 35.7985 27.349 36.2398L27.3462 45.1876C27.7513 45.6339 28.2112 45.8607 28.6101 45.8607C29.3093 45.8607 29.6247 45.2953 29.6247 43.8199V37.4756C29.6249 36.0001 29.3095 35.5669 28.6104 35.5669Z" fill="white"/>
<path d="M44.0896 29.7897C44.0896 29.7897 43.6989 26.7673 42.5003 25.4362C40.9802 23.6895 39.2759 23.6808 38.4946 23.5787C32.9004 23.135 24.5089 23.135 24.5089 23.135H24.4913C24.4913 23.135 16.0995 23.135 10.5053 23.5787C9.72371 23.6808 8.02022 23.6895 6.49961 25.4362C5.30112 26.7673 4.911 29.7897 4.911 29.7897C4.911 29.7897 4.51123 33.3388 4.51123 36.8882V40.216C4.51123 43.7651 4.911 47.3137 4.911 47.3137C4.911 47.3137 5.30112 50.336 6.49975 51.6671C8.02035 53.4146 10.0182 53.3587 10.9079 53.5416C14.1061 53.8784 24.5 53.9825 24.5 53.9825C24.5 53.9825 32.9004 53.9686 38.4946 53.5251C39.2759 53.4228 40.9801 53.4141 42.5003 51.6669C43.6989 50.336 44.0896 47.3136 44.0896 47.3136C44.0896 47.3136 44.4887 43.7642 44.4887 40.2155V36.8882C44.4889 33.3388 44.0896 29.7897 44.0896 29.7897ZM13.2919 48.0984H10.6143V31.1311H7.8028V28.331L16.2372 28.3279V31.1311H13.2919V48.0984ZM22.9312 48.0984H20.3875V46.4754C19.4232 47.6935 18.6057 48.3088 17.7146 48.3088C16.9327 48.3088 16.3897 47.9023 16.1179 47.168C15.9527 46.7218 15.8356 46.0242 15.8356 45.0004V33.3447H18.3793V44.2627V45.2955C18.4386 45.71 18.5981 45.8609 18.9215 45.8609C19.4084 45.8609 19.849 45.3947 20.3875 44.5578V33.3447H22.9312V48.0984ZM32.1688 43.6721C32.1688 45.0357 32.0629 45.998 31.901 46.623C31.5776 47.7192 30.8722 48.2885 29.907 48.2885C29.0451 48.2885 28.1623 47.7171 27.3522 46.6129L27.3491 48.0984H24.9393V28.3279H27.3491L27.3463 34.7736C28.1294 33.7124 29.0156 33.1078 29.9072 33.1078C30.8723 33.1078 31.5212 33.7224 31.8447 34.8262C32.0065 35.4194 32.1689 36.374 32.1689 37.7705V43.6721H32.1688ZM37.4943 45.8605C38.091 45.8605 38.4388 45.5028 38.5771 44.7887C38.5996 44.6433 38.5953 44.006 38.5953 42.9344H41.1389V43.3526C41.1389 44.2133 41.0746 44.8225 41.0528 45.0899C40.971 45.6821 40.7806 46.2178 40.4859 46.6904C39.8155 47.7609 38.8207 48.2885 37.5545 48.2885C36.2865 48.2885 35.3214 47.7857 34.6207 46.7783C34.1058 46.0406 33.7755 44.9438 33.7755 43.3771V38.2131C33.7755 36.6371 34.0759 35.4193 34.5909 34.6736C35.2918 33.6647 36.2569 33.1306 37.4944 33.1306C38.7103 33.1306 39.6754 33.6647 40.3547 34.6736C40.8615 35.4194 41.1434 36.572 41.1434 38.1478L41.1435 41.1639H36.3192V43.8135C36.3108 45.1753 36.6622 45.8605 37.4943 45.8605Z" fill="white"/>
</svg>
